<svg width="24" height="28" viewBox="0 0 24 28" fill="none" xmlns="http://www.w3.org/2000/svg">
<path d="M24 17H10.83L13.41 14.41L12 13L7 18L12 23L13.41 21.59L10.83 19H24V17Z" fill="black"/>
<path d="M20 12V8.00002C20.0008 7.86841 19.9755 7.73795 19.9258 7.61611C19.876 7.49427 19.8027 7.38346 19.71 7.29002L12.71 0.290017C12.6166 0.197335 12.5057 0.12401 12.3839 0.0742455C12.2621 0.0244809 12.1316 -0.000744179 12 1.67143e-05H2C1.46957 1.67143e-05 0.960859 0.21073 0.585786 0.585803C0.210714 0.960876 0 1.46958 0 2.00002V26C0 26.5305 0.210714 27.0392 0.585786 27.4142C0.960859 27.7893 1.46957 28 2 28H18C18.5304 28 19.0391 27.7893 19.4142 27.4142C19.7893 27.0392 20 26.5305 20 26V24H18V26H2V2.00002H10V8.00002C10 8.53045 10.2107 9.03916 10.5858 9.41423C10.9609 9.7893 11.4696 10 12 10H18V12H20ZM12 8.00002V2.41002L17.59 8.00002H12Z" fill="black"/>
</svg>
