<svg width="338" height="478" viewBox="0 0 338 478" fill="none" xmlns="http://www.w3.org/2000/svg">
<path fill-rule="evenodd" clip-rule="evenodd" d="M151.56 418.35V442.502H99.2282C94.5954 442.49 90.1462 444.322 86.8652 447.596C83.584 450.869 81.7402 455.315 81.7402 459.948C81.7402 464.581 83.584 469.026 86.8652 472.3C90.1464 475.569 94.5957 477.405 99.2282 477.39H238.778C243.411 477.405 247.86 475.569 251.141 472.3C254.422 469.026 256.266 464.581 256.266 459.948C256.266 455.315 254.422 450.87 251.141 447.596C247.86 444.322 243.411 442.49 238.778 442.502H186.446V418.35C227.926 414.034 266.333 394.502 294.246 363.526C322.168 332.549 337.617 292.331 337.617 250.626C337.602 244.403 334.273 238.661 328.883 235.556C323.492 232.45 316.856 232.45 311.469 235.556C306.078 238.661 302.75 244.404 302.73 250.626C302.73 286.095 288.64 320.106 263.562 345.188C238.48 370.266 204.468 384.356 169 384.356C133.532 384.356 99.5205 370.266 74.4385 345.188C49.3605 320.106 35.2705 286.094 35.2705 250.626C35.2509 244.403 31.9228 238.661 26.5322 235.556C21.1455 232.45 14.5092 232.45 9.11818 235.556C3.72758 238.661 0.399389 244.404 0.383789 250.626C0.383789 292.329 15.8328 332.548 43.7548 363.526C71.6728 394.503 110.079 414.034 151.555 418.35H151.56ZM279.47 103.95C279.47 76.54 268.583 50.255 249.2 30.876C229.821 11.493 203.536 0.605957 176.126 0.605957H161.868C134.458 0.605957 108.173 11.493 88.7942 30.876C69.4112 50.255 58.5242 76.54 58.5242 103.95V257.75C58.5242 285.16 69.4112 311.445 88.7942 330.824C108.173 350.207 134.458 361.094 161.868 361.094H176.126C203.536 361.094 229.821 350.207 249.2 330.824C268.583 311.445 279.47 285.16 279.47 257.75V103.95Z" fill="white"/>
</svg>
