<svg width="420" height="560" viewBox="0 0 420 560" fill="none" xmlns="http://www.w3.org/2000/svg">
<path className="fill" d="M70 0C51.434 0 33.633 7.375 20.504 20.504C7.375 33.633 0 51.434 0 70V490C0 515.008 13.344 538.117 35 550.621C56.656 563.125 83.344 563.125 105 550.621C126.656 538.117 140 515.008 140 490V70C140 51.434 132.625 33.633 119.496 20.504C106.367 7.375 88.566 0 70 0V0Z" fill="black"/>
<path className="fill" d="M350 0C331.434 0 313.633 7.375 300.504 20.504C287.375 33.633 280 51.434 280 70V490C280 515.008 293.344 538.117 315 550.621C336.656 563.125 363.344 563.125 385 550.621C406.656 538.117 420 515.008 420 490V70C420 51.434 412.625 33.633 399.496 20.504C386.367 7.375 368.566 0 350 0V0Z" fill="black"/>
</svg>
