<svg width="475" height="493" viewBox="0 0 475 493" fill="none" xmlns="http://www.w3.org/2000/svg">
<path d="M340.106 3.55787C329.144 -2.01913 316.154 -0.980127 306.183 6.24987L144.014 124.395H29.6347C13.3467 124.395 0.0966797 137.645 0.0966797 153.933V338.327C0.0966797 354.615 13.3467 367.865 29.6347 367.865H144.014L306.183 486.01C311.885 490.154 318.577 492.27 325.318 492.27C330.357 492.27 335.414 491.087 340.107 488.703C351.068 483.126 357.886 472.011 357.886 459.703V32.5579C357.885 20.2509 351.068 9.13487 340.106 3.55787ZM137.375 348.174H29.6347C24.2017 348.174 19.7887 343.761 19.7887 338.328V153.933C19.7887 148.5 24.2017 144.087 29.6347 144.087H137.375V348.174ZM338.193 459.703C338.193 464.636 335.568 468.915 331.174 471.155C326.77 473.395 321.761 472.992 317.78 470.088L157.068 353.01V139.25L317.779 22.1739C321.769 19.2609 326.779 18.8659 331.173 21.1069C335.567 23.3469 338.192 27.6259 338.192 32.5589V459.703H338.193Z" fill="#97A2BF"/>
<path d="M423.914 124.616L409.991 138.539C438.683 167.231 454.481 205.443 454.481 246.135C454.481 286.818 438.683 325.029 409.991 353.722L423.914 367.645C456.327 335.241 474.174 292.087 474.174 246.135C474.173 200.174 456.327 157.02 423.914 124.616Z" fill="#97A2BF"/>
</svg>
