<?xml version="1.0" encoding="iso-8859-1"?>
<!-- Generator: Adobe Illustrator 19.0.0, SVG Export Plug-In . SVG Version: 6.00 Build 0)  -->
<svg version="1.1" id="Layer_1" xmlns="http://www.w3.org/2000/svg" xmlns:xlink="http://www.w3.org/1999/xlink" x="0px" y="0px"
	 viewBox="0 0 492.27 492.27" style="enable-background:new 0 0 492.27 492.27;" xml:space="preserve">
<g>
	<g>
		<path d="M349.106,3.558c-10.962-5.577-23.952-4.538-33.923,2.692L153.014,124.395H38.635c-16.288,0-29.538,13.25-29.538,29.538
			v184.394c0,16.288,13.25,29.538,29.538,29.538h114.379L315.183,486.01c5.702,4.144,12.394,6.26,19.135,6.26
			c5.039,0,10.096-1.183,14.789-3.567c10.961-5.577,17.779-16.692,17.779-29V32.558C366.885,20.251,360.068,9.135,349.106,3.558z
			 M146.375,348.174H38.635c-5.433,0-9.846-4.413-9.846-9.846V153.933c0-5.433,4.413-9.846,9.846-9.846h107.74V348.174z
			 M347.193,459.703c0,4.933-2.625,9.212-7.019,11.452c-4.404,2.24-9.413,1.837-13.394-1.067L166.068,353.01v-213.76L326.779,22.174
			c3.99-2.913,9-3.308,13.394-1.067c4.394,2.24,7.019,6.519,7.019,11.452V459.703z"/>
	</g>
</g>
<g>
	<g>
		<path d="M432.914,124.616l-13.923,13.923c28.692,28.692,44.49,66.904,44.49,107.596c0,40.683-15.798,78.894-44.49,107.587
			l13.923,13.923c32.413-32.404,50.26-75.558,50.26-121.51C483.173,200.174,465.327,157.02,432.914,124.616z"/>
	</g>
</g>
</svg>
